<?xml version="1.0" encoding="UTF-8"?>
<svg id="Layer_2" data-name="Layer 2" xmlns="http://www.w3.org/2000/svg" viewBox="0 0 1002 883.7">
  <defs>
    <style>
      .cls-1 {
        fill: #fff;
      }

      .cls-2 {
        font-size: 35.86px;
      }

      .cls-2, .cls-3 {
        fill: #215797;
        font-family: Phosphate-Inline, Phosphate;
      }

      .cls-3 {
        font-size: 81.31px;
      }
    </style>
  </defs>
  <g>
    <path d="m1001.75,513.98c-8.84,8.46-19.46,14.74-29.26,19.27-4.79,2.22-9.73,4.04-14.78,5.47,0,0-41.45-10.02-72.57-34.1.86-.07,1.73-.13,2.62-.18,45.69-2.58,57.41-9.08,59.57-10.61,28.52,15.82,54.42,20.15,54.42,20.15Z"/>
    <path class="cls-1" d="m957.71,538.72c-9.19,2.64-18.73,4.03-28.33,4.33-29.09.93-44.57,15.69-52.8,30.74l-.83-.29s-22.5-2.88-46.82-32.2c13.22-20.68,26.73-34.3,56.21-36.68,31.12,24.08,72.57,34.1,72.57,34.1Z"/>
    <path class="cls-1" d="m947.33,493.83c-2.16,1.53-13.88,8.03-59.57,10.61-.89.05-1.76.11-2.62.18-7.24-5.6-13.92-11.95-19.39-19.12-5.48-7.19-10.6-16.26-15.07-27.32,1.01.07,2.03.18,3.07.32,35.3,4.9,45.6-4.62,45.99-4.99,13.73,18.2,31.1,31.18,47.59,40.32Z"/>
    <path d="m891.67,441.5c2.5,4.24,5.2,8.24,8.07,12.01-.39.37-10.69,9.89-45.99,4.99-1.04-.14-2.06-.25-3.07-.32-6.62-16.36-11.84-37.08-14.74-62.52,34.9,4.69,38.81-2.16,38.81-2.16l.32-.05c2.59,16.24,7.37,32.42,16.6,48.05Z"/>
    <path d="m875.75,573.5l.83.29c-2.31,4.21-4.04,8.45-5.35,12.41-4.67,14.13-11.79,27.27-21.08,38.63l-.4-.33s-27.44-6.22-52.37-32.44l.09-.12c13.64-19.27,22.48-36.59,31.46-50.64,24.32,29.32,46.82,32.2,46.82,32.2Z"/>
    <path class="cls-1" d="m875.07,393.45l-.32.05s-3.91,6.85-38.81,2.16c-2.27-19.8-3.14-42.47-2.19-68.16.06-1.56.08-3.09.08-4.59,31.58,3.99,36.5-1.81,36.89-2.37,1.6,23.33.42,48.2,4.35,72.91Z"/>
    <path d="m865.75,485.5c5.47,7.17,12.15,13.52,19.39,19.12-29.48,2.38-42.99,16-56.21,36.68-2.68-3.23-5.39-6.78-8.08-10.68-6.91-10-13-23.39-17.58-40.38h0c3.85-7.99,18.72-34.15,47.41-32.06,4.47,11.06,9.59,20.13,15.07,27.32Z"/>
    <path d="m855.25,264.5c10.63,16.81,14.09,35.85,15.47,56.04-.39.56-5.31,6.36-36.89,2.37-.09-33.72-15.34-54.69-32.42-67.59,10.14-8.64,20.83-14.73,32.2-16.88h.01c7.56,6.99,14.99,15.56,21.63,26.06Z"/>
    <path class="cls-1" d="m849.75,624.5l.4.33c-6.94,8.5-15.1,16-24.36,22.18-3,2-6,3.86-8.98,5.59l-.06-.1s-30.2-6.2-57.1-24.8c12.72-7.93,26.16-19.32,37.73-35.64,24.93,26.22,52.37,32.44,52.37,32.44Z"/>
    <path class="cls-1" d="m850.68,458.18c-28.69-2.09-43.56,24.07-47.41,32.05-5.57-20.67-8.91-46.69-8.77-78.48,8.33-9.53,21.51-18.85,40.25-16.25.4.06.8.11,1.19.16,2.9,25.44,8.12,46.16,14.74,62.52Z"/>
    <path d="m835.94,395.66c-.39-.05-.79-.1-1.19-.16-18.74-2.6-31.92,6.72-40.25,16.25.05-12.57.64-26.06,1.86-40.47,1.15-13.62-.15-25.37-3.1-35.48,8.38-8.4,20.71-15.63,37.49-13.3,1.05.15,2.08.28,3.08.41,0,1.5-.02,3.03-.08,4.59-.95,25.69-.08,48.36,2.19,68.16Z"/>
    <path class="cls-1" d="m833.83,322.91c-1-.13-2.03-.26-3.08-.41-16.78-2.33-29.11,4.9-37.49,13.3-5.25-17.93-15.69-30.76-26.92-39.84,11.03-15.64,22.63-30.06,35.07-40.64,17.08,12.9,32.33,33.87,32.42,67.59Z"/>
    <path class="cls-1" d="m820.85,530.62c2.69,3.9,5.4,7.45,8.08,10.68-8.98,14.05-17.82,31.37-31.46,50.64l-.09.12c-4.3-4.53-8.53-9.65-12.53-15.44-5.96-8.63-12.19-19.04-17.69-31.84,12.02-13.14,24.04-30.19,35.09-52.28,0,0,.33-.84,1.02-2.26,4.58,16.99,10.67,30.38,17.58,40.38Z"/>
    <path d="m816.75,652.5l.06.1c-34.06,19.71-65.56,21.9-65.56,21.9-14.63-4.88-27.06-15.31-37.7-29.14,4.7-.66,24.35-4.1,46.1-17.66,26.9,18.6,57.1,24.8,57.1,24.8Z"/>
    <path class="cls-1" d="m776.25,208.5s29.62,4.32,57.36,29.94c-11.37,2.15-22.06,8.24-32.2,16.88-20.34-15.36-43.27-19.3-46.32-19.77l21.16-27.05Z"/>
    <path d="m803.27,490.23h0c-.69,1.43-1.02,2.27-1.02,2.27-11.05,22.09-23.07,39.14-35.09,52.28-7.43-17.31-13.52-39-15.78-66.62,10.94-12.61,21.81-28.54,31.87-48.66,0,0,3.56-8.97,11.25-17.75-.14,31.79,3.2,57.81,8.77,78.48Z"/>
    <path class="cls-1" d="m793.26,335.8c2.95,10.11,4.25,21.86,3.1,35.48-1.22,14.41-1.81,27.9-1.86,40.47-7.69,8.78-11.25,17.75-11.25,17.75-10.06,20.12-20.93,36.05-31.87,48.66-1.29-15.84-1.32-33.63.37-53.66.72-8.46.54-16.21-.36-23.3,9.8-12.73,19.27-27.53,27.86-44.7,0,0,4.42-11.11,14.01-20.7Z"/>
    <path d="m755.09,235.55c3.05.47,25.98,4.41,46.32,19.77-12.44,10.58-24.04,25-35.07,40.64-19.36-15.64-41.05-20.15-42.51-20.45l31.26-39.96Z"/>
    <path d="m784.85,576.62c4,5.79,8.23,10.91,12.53,15.44-11.57,16.32-25.01,27.71-37.73,35.64-10-6.91-19.54-15.54-26.9-26.2-4.92-7.13-9.47-13.79-13.37-21.23,14.1-6.29,30.93-17.06,47.78-35.49,5.5,12.8,11.73,23.21,17.69,31.84Z"/>
    <path d="m793.26,335.8c-9.59,9.59-14.01,20.7-14.01,20.7-8.59,17.17-18.06,31.97-27.86,44.7-2.71-21.44-11.94-36.92-22.75-47.99,12-17.83,24.43-38.43,37.7-57.25,11.23,9.08,21.67,21.91,26.92,39.84Z"/>
    <path class="cls-1" d="m723.83,275.51c1.46.3,23.15,4.81,42.51,20.45-13.27,18.82-25.7,39.42-37.7,57.25-19.8-20.27-44.89-25.71-44.89-25.71l-.36-.28,40.44-51.71Z"/>
    <path d="m751.39,401.2c.9,7.09,1.08,14.84.36,23.3-1.69,20.03-1.66,37.82-.37,53.66-15.75,18.17-31.64,29.45-45.45,36.46-.09-11.7.48-25.24,1.82-41.12.88-10.37.36-19.51-1.22-27.57,14.37-10.85,29.99-25.41,44.86-44.73Z"/>
    <path class="cls-1" d="m751.38,478.16c2.26,27.62,8.35,49.31,15.78,66.62-16.85,18.43-33.68,29.2-47.78,35.49-7.94-15.16-13.19-33.53-13.45-65.65,13.81-7.01,29.7-18.29,45.45-36.46Z"/>
    <path class="cls-1" d="m759.65,627.7c-21.75,13.56-41.4,17-46.1,17.66-11.96-15.52-21.67-35.3-29.77-56.29,1.8.03,16.07-.09,35.6-8.8,3.9,7.44,8.45,14.1,13.37,21.23,7.36,10.66,16.9,19.29,26.9,26.2Z"/>
    <path class="cls-1" d="m728.64,353.21c10.81,11.07,20.04,26.55,22.75,47.99-14.87,19.32-30.49,33.88-44.86,44.73-3.61-18.53-12.78-31.32-23.33-40.14,16.23-15.97,33.38-34.67,45.44-52.58Z"/>
    <path d="m683.75,327.5s25.09,5.44,44.89,25.71c-12.06,17.91-29.21,36.61-45.44,52.58-19.41-16.23-43.5-19-46.2-19.27l46.39-59.3.36.28Z"/>
    <path class="cls-1" d="m706.53,445.93c1.58,8.06,2.1,17.2,1.22,27.57-1.34,15.88-1.91,29.42-1.82,41.12-23.77,12.07-41.34,11.45-41.34,11.45l-.71.19c-5.26-19.42-9.61-37.17-13.59-50.62l.46-.14s25.05-6.34,55.78-29.57Z"/>
    <path d="m705.93,514.62c.26,32.12,5.51,50.49,13.45,65.65-19.53,8.71-33.8,8.83-35.6,8.8-8.02-20.75-14.45-42.67-19.9-62.81l.71-.19s17.57.62,41.34-11.45Z"/>
    <path d="m706.53,445.93c-30.73,23.23-55.78,29.57-55.78,29.57l-.46.14s-.03-.09-.04-.14c-3.74-12.62-8.46-21.64-13.5-28.04,0,0,22.19-17.79,46.45-41.67,10.55,8.82,19.72,21.61,23.33,40.14Z"/>
    <path class="cls-1" d="m637,386.52c2.7.27,26.79,3.04,46.2,19.27-24.26,23.88-46.45,41.67-46.45,41.67-16.54-21.01-36.5-13.96-36.5-13.96l36.75-46.98Z"/>
  </g>
  <g>
    <rect x="597.5" y="125.26" width="18.5" height="573" transform="translate(386.84 -287.76) rotate(38.39)"/>
    <circle cx="788.8" cy="181.55" r="16.5"/>
  </g>
  <g>
    <g>
      <path d="m.25,512.98c8.84,8.46,19.46,14.74,29.26,19.27,4.79,2.22,9.73,4.04,14.78,5.47,0,0,41.45-10.02,72.57-34.1-.86-.07-1.73-.13-2.62-.18-45.69-2.58-57.41-9.08-59.57-10.61-28.52,15.82-54.42,20.15-54.42,20.15Z"/>
      <path class="cls-1" d="m44.29,537.72c9.19,2.64,18.73,4.03,28.33,4.33,29.09.93,44.57,15.69,52.8,30.74l.83-.29s22.5-2.88,46.82-32.2c-13.22-20.68-26.73-34.3-56.21-36.68-31.12,24.08-72.57,34.1-72.57,34.1Z"/>
      <path class="cls-1" d="m54.67,492.83c2.16,1.53,13.88,8.03,59.57,10.61.89.05,1.76.11,2.62.18,7.24-5.6,13.92-11.95,19.39-19.12,5.48-7.19,10.6-16.26,15.07-27.32-1.01.07-2.03.18-3.07.32-35.3,4.9-45.6-4.62-45.99-4.99-13.73,18.2-31.1,31.18-47.59,40.32Z"/>
      <path d="m110.33,440.5c-2.5,4.24-5.2,8.24-8.07,12.01.39.37,10.69,9.89,45.99,4.99,1.04-.14,2.06-.25,3.07-.32,6.62-16.36,11.84-37.08,14.74-62.52-34.9,4.69-38.81-2.16-38.81-2.16l-.32-.05c-2.59,16.24-7.37,32.42-16.6,48.05Z"/>
      <path d="m126.25,572.5l-.83.29c2.31,4.21,4.04,8.45,5.35,12.41,4.67,14.13,11.79,27.27,21.08,38.63l.4-.33s27.44-6.22,52.37-32.44l-.09-.12c-13.64-19.27-22.48-36.59-31.46-50.64-24.32,29.32-46.82,32.2-46.82,32.2Z"/>
      <path class="cls-1" d="m126.93,392.45l.32.05s3.91,6.85,38.81,2.16c2.27-19.8,3.14-42.47,2.19-68.16-.06-1.56-.08-3.09-.08-4.59-31.58,3.99-36.5-1.81-36.89-2.37-1.6,23.33-.42,48.2-4.35,72.91Z"/>
      <path d="m136.25,484.5c-5.47,7.17-12.15,13.52-19.39,19.12,29.48,2.38,42.99,16,56.21,36.68,2.68-3.23,5.39-6.78,8.08-10.68,6.91-10,13-23.39,17.58-40.38h0c-3.85-7.99-18.72-34.15-47.41-32.06-4.47,11.06-9.59,20.13-15.07,27.32Z"/>
      <path d="m146.75,263.5c-10.63,16.81-14.09,35.85-15.47,56.04.39.56,5.31,6.36,36.89,2.37.09-33.72,15.34-54.69,32.42-67.59-10.14-8.64-20.83-14.73-32.2-16.88h-.01c-7.56,6.99-14.99,15.56-21.63,26.06Z"/>
      <path class="cls-1" d="m152.25,623.5l-.4.33c6.94,8.5,15.1,16,24.36,22.18,3,2,6,3.86,8.98,5.59l.06-.1s30.2-6.2,57.1-24.8c-12.72-7.93-26.16-19.32-37.73-35.64-24.93,26.22-52.37,32.44-52.37,32.44Z"/>
      <path class="cls-1" d="m151.32,457.18c28.69-2.09,43.56,24.07,47.41,32.05,5.57-20.67,8.91-46.69,8.77-78.48-8.33-9.53-21.51-18.85-40.25-16.25-.4.06-.8.11-1.19.16-2.9,25.44-8.12,46.16-14.74,62.52Z"/>
      <path d="m166.06,394.66c.39-.05.79-.1,1.19-.16,18.74-2.6,31.92,6.72,40.25,16.25-.05-12.57-.64-26.06-1.86-40.47-1.15-13.62.15-25.37,3.1-35.48-8.38-8.4-20.71-15.63-37.49-13.3-1.05.15-2.08.28-3.08.41,0,1.5.02,3.03.08,4.59.95,25.69.08,48.36-2.19,68.16Z"/>
      <path class="cls-1" d="m168.17,321.91c1-.13,2.03-.26,3.08-.41,16.78-2.33,29.11,4.9,37.49,13.3,5.25-17.93,15.69-30.76,26.92-39.84-11.03-15.64-22.63-30.06-35.07-40.64-17.08,12.9-32.33,33.87-32.42,67.59Z"/>
      <path class="cls-1" d="m181.15,529.62c-2.69,3.9-5.4,7.45-8.08,10.68,8.98,14.05,17.82,31.37,31.46,50.64l.09.12c4.3-4.53,8.53-9.65,12.53-15.44,5.96-8.63,12.19-19.04,17.69-31.84-12.02-13.14-24.04-30.19-35.09-52.28,0,0-.33-.84-1.02-2.26-4.58,16.99-10.67,30.38-17.58,40.38Z"/>
      <path d="m185.25,651.5l-.06.1c34.06,19.71,65.56,21.9,65.56,21.9,14.63-4.88,27.06-15.31,37.7-29.14-4.7-.66-24.35-4.1-46.1-17.66-26.9,18.6-57.1,24.8-57.1,24.8Z"/>
      <path class="cls-1" d="m225.75,207.5s-29.62,4.32-57.36,29.94c11.37,2.15,22.06,8.24,32.2,16.88,20.34-15.36,43.27-19.3,46.32-19.77l-21.16-27.05Z"/>
      <path d="m198.73,489.23h0c.69,1.43,1.02,2.27,1.02,2.27,11.05,22.09,23.07,39.14,35.09,52.28,7.43-17.31,13.52-39,15.78-66.62-10.94-12.61-21.81-28.54-31.87-48.66,0,0-3.56-8.97-11.25-17.75.14,31.79-3.2,57.81-8.77,78.48Z"/>
      <path class="cls-1" d="m208.74,334.8c-2.95,10.11-4.25,21.86-3.1,35.48,1.22,14.41,1.81,27.9,1.86,40.47,7.69,8.78,11.25,17.75,11.25,17.75,10.06,20.12,20.93,36.05,31.87,48.66,1.29-15.84,1.32-33.63-.37-53.66-.72-8.46-.54-16.21.36-23.3-9.8-12.73-19.27-27.53-27.86-44.7,0,0-4.42-11.11-14.01-20.7Z"/>
      <path d="m246.91,234.55c-3.05.47-25.98,4.41-46.32,19.77,12.44,10.58,24.04,25,35.07,40.64,19.36-15.64,41.05-20.15,42.51-20.45l-31.26-39.96Z"/>
      <path d="m217.15,575.62c-4,5.79-8.23,10.91-12.53,15.44,11.57,16.32,25.01,27.71,37.73,35.64,10-6.91,19.54-15.54,26.9-26.2,4.92-7.13,9.47-13.79,13.37-21.23-14.1-6.29-30.93-17.06-47.78-35.49-5.5,12.8-11.73,23.21-17.69,31.84Z"/>
      <path d="m208.74,334.8c9.59,9.59,14.01,20.7,14.01,20.7,8.59,17.17,18.06,31.97,27.86,44.7,2.71-21.44,11.94-36.92,22.75-47.99-12-17.83-24.43-38.43-37.7-57.25-11.23,9.08-21.67,21.91-26.92,39.84Z"/>
      <path class="cls-1" d="m278.17,274.51c-1.46.3-23.15,4.81-42.51,20.45,13.27,18.82,25.7,39.42,37.7,57.25,19.8-20.27,44.89-25.71,44.89-25.71l.36-.28-40.44-51.71Z"/>
      <path d="m250.61,400.2c-.9,7.09-1.08,14.84-.36,23.3,1.69,20.03,1.66,37.82.37,53.66,15.75,18.17,31.64,29.45,45.45,36.46.09-11.7-.48-25.24-1.82-41.12-.88-10.37-.36-19.51,1.22-27.57-14.37-10.85-29.99-25.41-44.86-44.73Z"/>
      <path class="cls-1" d="m250.62,477.16c-2.26,27.62-8.35,49.31-15.78,66.62,16.85,18.43,33.68,29.2,47.78,35.49,7.94-15.16,13.19-33.53,13.45-65.65-13.81-7.01-29.7-18.29-45.45-36.46Z"/>
      <path class="cls-1" d="m242.35,626.7c21.75,13.56,41.4,17,46.1,17.66,11.96-15.52,21.67-35.3,29.77-56.29-1.8.03-16.07-.09-35.6-8.8-3.9,7.44-8.45,14.1-13.37,21.23-7.36,10.66-16.9,19.29-26.9,26.2Z"/>
      <path class="cls-1" d="m273.36,352.21c-10.81,11.07-20.04,26.55-22.75,47.99,14.87,19.32,30.49,33.88,44.86,44.73,3.61-18.53,12.78-31.32,23.33-40.14-16.23-15.97-33.38-34.67-45.44-52.58Z"/>
      <path d="m318.25,326.5s-25.09,5.44-44.89,25.71c12.06,17.91,29.21,36.61,45.44,52.58,19.41-16.23,43.5-19,46.2-19.27l-46.39-59.3-.36.28Z"/>
      <path class="cls-1" d="m295.47,444.93c-1.58,8.06-2.1,17.2-1.22,27.57,1.34,15.88,1.91,29.42,1.82,41.12,23.77,12.07,41.34,11.45,41.34,11.45l.71.19c5.26-19.42,9.61-37.17,13.59-50.62l-.46-.14s-25.05-6.34-55.78-29.57Z"/>
      <path d="m296.07,513.62c-.26,32.12-5.51,50.49-13.45,65.65,19.53,8.71,33.8,8.83,35.6,8.8,8.02-20.75,14.45-42.67,19.9-62.81l-.71-.19s-17.57.62-41.34-11.45Z"/>
      <path d="m295.47,444.93c30.73,23.23,55.78,29.57,55.78,29.57l.46.14s.03-.09.04-.14c3.74-12.62,8.46-21.64,13.5-28.04,0,0-22.19-17.79-46.45-41.67-10.55,8.82-19.72,21.61-23.33,40.14Z"/>
      <path class="cls-1" d="m365,385.52c-2.7.27-26.79,3.04-46.2,19.27,24.26,23.88,46.45,41.67,46.45,41.67,16.54-21.01,36.5-13.96,36.5-13.96l-36.75-46.98Z"/>
    </g>
    <g>
      <rect x="381.59" y="125.26" width="18.5" height="573" transform="translate(952.89 491.81) rotate(141.61)"/>
      <circle cx="208.79" cy="181.54" r="16.5"/>
    </g>
  </g>
  <text class="cls-3" transform="translate(318.96 270.65)"><tspan x="0" y="0">Automax</tspan></text>
  <text class="cls-2" transform="translate(376.73 322.17)"><tspan x="0" y="0">repair service</tspan></text>
</svg>